Coordinates
version=1
nRows=17
nColumns=24
inDegrees=yes

Units are S.I. units (second, meters, Newtons, ...)
Angles are in degrees.

endheader
time	pelvis_tilt	pelvis_list	pelvis_rotation	pelvis_tx	pelvis_ty	pelvis_tz	hip_flexion_r	hip_adduction_r	hip_rotation_r	knee_angle_r	ankle_angle_r	subtalar_angle_r	mtp_angle_r	hip_flexion_l	hip_adduction_l	hip_rotation_l	knee_angle_l	ankle_angle_l	subtalar_angle_l	mtp_angle_l	lumbar_extension	lumbar_bending	lumbar_rotation
      1.15433333	     -0.78079496	      5.88205252	     -3.39511292	      0.16463794	      0.90569394	      0.31438787	     18.62961261	     -9.68110914	     -6.68563748	    -78.45256991	     -3.30412971	      1.79903705	     10.05582327	     11.08463992	      9.47047467	     -3.64148265	    -19.73868072	     11.03093421	     -6.24745164	      1.79608562	     -8.10091893	     -8.90761313	      0.97069048
      1.15850000	     -0.82298078	      5.71093419	     -3.31848473	      0.16965088	      0.90664457	      0.31414671	     19.36350612	     -9.39100608	     -6.72664562	    -78.45713593	     -3.01989916	      1.70466391	     10.02355728	     10.51401899	      9.34381612	     -3.49803083	    -19.25115223	     11.08605215	     -6.14527232	      1.79380659	     -8.07352369	     -8.70306615	      0.91507534
      1.16266667	     -0.84809836	      5.51272304	     -3.19777479	      0.17464734	      0.90764337	      0.31382795	     20.03745796	     -9.08083583	     -6.81476790	    -78.36560356	     -2.77039947	      1.60932962	      9.84196218	      9.90670596	      9.21409424	     -3.19335278	    -18.72823951	     11.07976189	     -6.26252284	      1.76825813	     -8.10937021	     -8.44903592	      0.65627672
      1.16683333	     -0.90237928	      5.32547231	     -3.10240489	      0.17965801	      0.90854693	      0.31357772	     20.74199278	     -8.76157750	     -6.86352575	    -78.22400583	     -2.48783567	      1.54849582	      9.81101321	      9.35073457	      9.06422384	     -3.04472630	    -18.23851757	     11.10867032	     -6.16129609	      1.76449290	     -8.06634495	     -8.22924494	      0.59499048
      1.17100000	     -0.93600152	      5.09756206	     -2.97523337	      0.18462853	      0.90949552	      0.31328673	     21.38535744	     -8.40567129	     -6.95543110	    -77.98704098	     -2.20949426	      1.51867671	      9.74318609	      8.77541465	      8.88162378	     -2.79963530	    -17.75779626	     11.09978213	     -6.16957479	      1.75259347	     -8.10594836	     -7.92962894	      0.43063588
      1.17516667	     -0.95260109	      4.90340572	     -2.84440709	      0.18963767	      0.91043276	      0.31296220	     21.99596040	     -8.09984799	     -7.04448562	    -77.69269334	     -1.97753585	      1.52322100	      9.61393431	      8.15111510	      8.74473928	     -2.50972470	    -17.20597065	     11.10344361	     -6.25780867	      1.72912580	     -8.12625649	     -7.69346980	      0.16263204
      1.17933333	     -1.00482549	      4.68637760	     -2.72070393	      0.19460298	      0.91128393	      0.31269131	     22.63237788	     -7.74807685	     -7.11779583	    -77.33397726	     -1.69220135	      1.54282468	      9.56263236	      7.60115032	      8.55798454	     -2.32372017	    -16.71924709	     11.08220687	     -6.20611429	      1.71819339	     -8.11533820	     -7.42360145	      0.05861447
      1.18350000	     -1.00933613	      4.47929759	     -2.58307660	      0.19959571	      0.91218345	      0.31237836	     23.18924735	     -7.42756117	     -7.21370666	    -76.90529589	     -1.44477611	      1.59119800	      9.46072722	      6.97026658	      8.39634231	     -2.05067622	    -16.17334328	     11.08828692	     -6.25478739	      1.69629934	     -8.15625327	     -7.16727433	     -0.17676853
      1.18766667	     -1.05944592	      4.25880079	     -2.44911870	      0.20454114	      0.91297243	      0.31210995	     23.78519487	     -7.07373528	     -7.29070201	    -76.41665763	     -1.16212516	      1.64699390	      9.41950542	      6.42472811	      8.19788974	     -1.86655330	    -15.69091060	     11.05829936	     -6.20369003	      1.68596341	     -8.14749242	     -6.89454139	     -0.29057134
      1.19183333	     -1.05151398	      4.04946466	     -2.30537331	      0.20951363	      0.91381843	      0.31180227	     24.29083236	     -6.75674902	     -7.39344743	    -75.86037180	     -0.90999416	      1.73157076	      9.33958930	      5.78616648	      8.02486699	     -1.60526292	    -15.14553719	     11.06399195	     -6.24533362	      1.66700185	     -8.20346553	     -6.63181907	     -0.53192849
      1.19600000	     -1.09325111	      3.82864804	     -2.16294819	      0.21443581	      0.91454859	      0.31154105	     24.83906152	     -6.40858542	     -7.47752690	    -75.24429290	     -0.62607649	      1.81636280	      9.30112552	      5.23756584	      7.81928298	     -1.42423653	    -14.66213427	     11.02336938	     -6.20442249	      1.65647556	     -8.20617976	     -6.35886208	     -0.66090462
      1.20016667	     -1.10245707	      3.61294957	     -2.02131726	      0.21936202	      0.91528424	      0.31127746	     25.33140613	     -6.07521869	     -7.56733167	    -74.56766494	     -0.35867278	      1.90978313	      9.26288364	      4.64454830	      7.62085455	     -1.22077869	    -14.15802006	     11.01149045	     -6.18044831	      1.64694757	     -8.24793267	     -6.09351387	     -0.82912202
      1.20433333	     -1.07753467	      3.41915987	     -1.87692702	      0.22429437	      0.91601640	      0.31099524	     25.77029248	     -5.78191993	     -7.66458862	    -73.84009826	     -0.10615406	      2.00490162	      9.19197998	      3.99414898	      7.45206363	     -0.97172310	    -13.60575755	     11.00623471	     -6.22732031	      1.63039021	     -8.32504718	     -5.85164916	     -1.09140554
      1.20850000	     -1.11140941	      3.20591181	     -1.73095951	      0.22917997	      0.91662278	      0.31076335	     26.25646625	     -5.44983149	     -7.74882287	    -73.04724589	      0.16850699	      2.09625283	      9.16101666	      3.45267313	      7.24116764	     -0.81083175	    -13.13740648	     10.96877977	     -6.17792334	      1.62247531	     -8.33104115	     -5.59075919	     -1.21901993
      1.21266667	     -1.07625271	      3.01192480	     -1.58664996	      0.23408056	      0.91727430	      0.31051779	     26.64860312	     -5.15637823	     -7.84369765	    -72.20378942	      0.41204621	      2.18070443	      9.10455422	      2.80477116	      7.05925749	     -0.59393933	    -12.60186374	     10.97712820	     -6.18998626	      1.61142335	     -8.42867088	     -5.35005810	     -1.45567514
      1.21683333	     -1.09818862	      2.80958391	     -1.43927937	      0.23894153	      0.91779559	      0.31030964	     27.08658374	     -4.84171649	     -7.92703401	    -71.30036929	      0.68356498	      2.25647669	      9.07528830	      2.25888081	      6.85202435	     -0.44837643	    -12.13846725	     10.93678054	     -6.13986899	      1.60545273	     -8.44919248	     -5.10339032	     -1.59635525
      1.22100000	     -1.07380902	      2.61806686	     -1.29633211	      0.24381084	      0.91833008	      0.31010582	     27.45403356	     -4.54710370	     -8.01115432	    -70.34190884	      0.92453362	      2.31720907	      9.03674378	      1.64674957	      6.65872761	     -0.27458802	    -11.64242837	     10.93742654	     -6.11123206	      1.60022963	     -8.53400669	     -4.87378174	     -1.79445844
